<?xml version="1.0" encoding="utf-8"?>
<!-- Generator: Adobe Illustrator 16.0.0, SVG Export Plug-In . SVG Version: 6.00 Build 0)  -->
<!DOCTYPE svg PUBLIC "-//W3C//DTD SVG 1.1//EN" "http://www.w3.org/Graphics/SVG/1.1/DTD/svg11.dtd">
<svg version="1.1" id="Capa_1" xmlns="http://www.w3.org/2000/svg" xmlns:xlink="http://www.w3.org/1999/xlink" x="0px" y="0px"
	 width="801.702px" height="284.682px" viewBox="0 0 801.702 284.682" enable-background="new 0 0 801.702 284.682"
	 xml:space="preserve">
<g>
	<path fill="#F8C22F" d="M757.199,0c-12.561,0-22.999,4.44-31.308,13.323c-8.306,8.881-12.463,20.269-12.463,34.162
		c0,13.994,4.228,25.511,12.683,34.537c8.461,9.03,18.866,13.545,31.231,13.545c12.759,0,23.346-4.442,31.75-13.323
		c8.406-8.881,12.609-20.518,12.609-34.906c0-14.087-4.203-25.505-12.609-34.239C780.688,4.371,770.053,0,757.199,0z"/>
	<path fill="#80C0E8" d="M101.67,142.818c0,15.284-0.842,25.257-2.535,29.921c-2.287,6.253-5.791,10.991-10.52,14.216
		c-4.729,3.227-10.475,4.838-17.233,4.838c-6.768,0-12.465-1.636-17.089-4.911c-4.625-3.276-7.983-7.865-10.073-13.771
		c-2.088-5.903-3.136-16.447-3.136-31.633v-78H0v67.432c0,25.903,1.588,43.766,4.764,53.588
		c4.466,14.198,12.187,25.257,23.153,33.197c10.961,7.938,25.326,11.907,43.089,11.907c16.375,0,29.872-3.397,40.49-10.196
		c10.62-6.796,18.657-16.542,24.116-29.249c4.465-10.421,6.698-29.772,6.698-58.057V63.479H101.67V142.818z"/>
	<path fill="#80C0E8" d="M273.533,81.341c-7.235-7.343-15.114-12.851-23.638-16.523c-8.525-3.666-17.645-5.507-27.361-5.507
		c-21.108,0-39.05,7.989-53.817,23.967c-14.771,15.98-22.16,36.469-22.16,61.477c0,24.116,7.631,44.283,22.899,60.514
		c15.269,16.225,33.354,24.335,54.269,24.335c9.319,0,17.968-1.659,25.946-4.986c7.979-3.322,15.933-8.757,23.862-16.298v76.363
		h40.64V63.479h-40.64V81.341z M262.71,179.066c-8.404,8.881-18.989,13.323-31.75,13.323c-12.365,0-22.771-4.515-31.231-13.545
		c-8.456-9.027-12.683-20.544-12.683-34.537c0-13.893,4.159-25.279,12.465-34.162c8.306-8.881,18.747-13.323,31.305-13.323
		c12.856,0,23.49,4.373,31.895,13.101c8.406,8.731,12.609,20.15,12.609,34.235C275.319,158.549,271.116,170.183,262.71,179.066z"/>
	<path fill="#80C0E8" d="M412.627,59.311c-9.727,0-18.856,1.841-27.391,5.507c-8.535,3.672-16.475,9.18-23.818,16.523V0.958h-40.34
		v224.477h40.34v-17.116c7.94,7.541,15.929,12.976,23.967,16.298c8.037,3.327,16.723,4.986,26.049,4.986
		c20.94,0,39.052-8.11,54.336-24.335c15.281-16.23,22.922-36.398,22.922-60.514c0-25.008-7.392-45.497-22.179-61.477
		C451.726,67.299,433.763,59.311,412.627,59.311z M435.482,178.844c-8.488,9.03-18.936,13.545-31.342,13.545
		c-12.8,0-23.419-4.441-31.854-13.323c-8.437-8.884-12.654-20.517-12.654-34.909c0-14.085,4.217-25.504,12.654-34.235
		c8.435-8.728,19.054-13.101,31.854-13.101c12.705,0,23.224,4.442,31.56,13.323c8.336,8.882,12.504,20.269,12.504,34.162
		C448.203,158.3,443.965,169.817,435.482,178.844z"/>
	<path fill="#80C0E8" d="M619.24,81.341c-7.235-7.343-15.115-12.851-23.639-16.523c-8.523-3.666-17.646-5.507-27.359-5.507
		c-21.108,0-39.052,7.989-53.817,23.967c-14.774,15.98-22.161,36.469-22.161,61.477c0,24.116,7.631,44.283,22.898,60.514
		c15.271,16.225,33.355,24.335,54.271,24.335c9.318,0,17.969-1.659,25.946-4.986c7.979-3.322,15.932-8.757,23.861-16.298v17.116
		h40.639V63.479H619.24V81.341z M608.418,179.066c-8.404,8.881-18.988,13.323-31.75,13.323c-12.365,0-22.771-4.515-31.231-13.545
		c-8.455-9.027-12.683-20.544-12.683-34.537c0-13.893,4.157-25.279,12.463-34.162c8.309-8.881,18.746-13.323,31.308-13.323
		c12.854,0,23.489,4.373,31.894,13.101c8.406,8.731,12.609,20.15,12.609,34.235C621.027,158.549,616.824,170.183,608.418,179.066z"
		/>
	<path fill="#80C0E8" d="M717.287,65.563c-6.25,4.167-11.262,10.271-15.034,18.31V63.479H667.42v161.957h40.341v-65.497
		l-0.149-7.889c0-22.627,2.164-37.811,6.481-45.551c4.317-7.739,9.597-11.612,15.848-11.612c3.078,0,22.239,1.192,27.004,3.574
		l2.492-34.982c-5.757-2.774-16.347-4.168-21.604-4.168C730.388,59.311,723.541,61.395,717.287,65.563z"/>
</g>
</svg>
